<svg width="15" height="14" viewBox="0 0 15 14" fill="none" xmlns="http://www.w3.org/2000/svg">
<path d="M8.2 6.3H11C11.1857 6.3 11.3637 6.37375 11.495 6.50503C11.6263 6.6363 11.7 6.81435 11.7 7C11.7 7.18565 11.6263 7.3637 11.495 7.49497C11.3637 7.62625 11.1857 7.7 11 7.7H7.5C7.31435 7.7 7.1363 7.62625 7.00503 7.49497C6.87375 7.3637 6.8 7.18565 6.8 7V2.8C6.8 2.61435 6.87375 2.4363 7.00503 2.30503C7.1363 2.17375 7.31435 2.1 7.5 2.1C7.68565 2.1 7.8637 2.17375 7.99497 2.30503C8.12625 2.4363 8.2 2.61435 8.2 2.8V6.3ZM7.5 14C3.6339 14 0.5 10.8661 0.5 7C0.5 3.1339 3.6339 0 7.5 0C11.3661 0 14.5 3.1339 14.5 7C14.5 10.8661 11.3661 14 7.5 14ZM7.5 12.6C8.98521 12.6 10.4096 12.01 11.4598 10.9598C12.51 9.90959 13.1 8.48521 13.1 7C13.1 5.51479 12.51 4.09041 11.4598 3.0402C10.4096 1.99 8.98521 1.4 7.5 1.4C6.01479 1.4 4.59041 1.99 3.5402 3.0402C2.49 4.09041 1.9 5.51479 1.9 7C1.9 8.48521 2.49 9.90959 3.5402 10.9598C4.59041 12.01 6.01479 12.6 7.5 12.6Z" fill="white"/>
</svg>
