<svg width="11" height="11" viewBox="0 0 11 11" fill="none" xmlns="http://www.w3.org/2000/svg">
<path fill-rule="evenodd" clip-rule="evenodd" d="M0.6875 2.75V9.625C0.6875 9.80734 0.759933 9.9822 0.888864 10.1111C1.0178 10.2401 1.19266 10.3125 1.375 10.3125H9.625C9.80734 10.3125 9.9822 10.2401 10.1111 10.1111C10.2401 9.9822 10.3125 9.80734 10.3125 9.625V2.75H0.6875ZM1.375 0.6875C1.01033 0.6875 0.660591 0.832366 0.402728 1.09023C0.144866 1.34809 0 1.69783 0 2.0625L0 9.625C0 9.98967 0.144866 10.3394 0.402728 10.5973C0.660591 10.8551 1.01033 11 1.375 11H9.625C9.98967 11 10.3394 10.8551 10.5973 10.5973C10.8551 10.3394 11 9.98967 11 9.625V2.0625C11 1.69783 10.8551 1.34809 10.5973 1.09023C10.3394 0.832366 9.98967 0.6875 9.625 0.6875H1.375Z" fill="white"/>
<path fill-rule="evenodd" clip-rule="evenodd" d="M2.40625 0C2.49742 0 2.58485 0.0362164 2.64932 0.100682C2.71378 0.165148 2.75 0.252582 2.75 0.34375V0.6875C2.75 0.778668 2.71378 0.866102 2.64932 0.930568C2.58485 0.995034 2.49742 1.03125 2.40625 1.03125C2.31508 1.03125 2.22765 0.995034 2.16318 0.930568C2.09872 0.866102 2.0625 0.778668 2.0625 0.6875V0.34375C2.0625 0.252582 2.09872 0.165148 2.16318 0.100682C2.22765 0.0362164 2.31508 0 2.40625 0V0ZM8.59375 0C8.68492 0 8.77235 0.0362164 8.83682 0.100682C8.90128 0.165148 8.9375 0.252582 8.9375 0.34375V0.6875C8.9375 0.778668 8.90128 0.866102 8.83682 0.930568C8.77235 0.995034 8.68492 1.03125 8.59375 1.03125C8.50258 1.03125 8.41515 0.995034 8.35068 0.930568C8.28622 0.866102 8.25 0.778668 8.25 0.6875V0.34375C8.25 0.252582 8.28622 0.165148 8.35068 0.100682C8.41515 0.0362164 8.50258 0 8.59375 0V0Z" fill="white"/>
</svg>
