<svg width="35" height="34" viewBox="0 0 35 34" fill="none" xmlns="http://www.w3.org/2000/svg">
<path d="M27.7083 15.5833H11.4187L18.5354 8.66998C19.1042 8.11748 19.1042 7.21081 18.5354 6.65831C18.4005 6.52698 18.2402 6.42279 18.0638 6.3517C17.8874 6.28061 17.6983 6.24402 17.5073 6.24402C17.3163 6.24402 17.1272 6.28061 16.9507 6.3517C16.7743 6.42279 16.6141 6.52698 16.4792 6.65831L6.86874 15.9941C6.73355 16.1252 6.62629 16.2809 6.55311 16.4523C6.47993 16.6236 6.44226 16.8074 6.44226 16.9929C6.44226 17.1784 6.47993 17.3622 6.55311 17.5335C6.62629 17.7049 6.73355 17.8606 6.86874 17.9916L16.4792 27.3275C16.6142 27.4586 16.7745 27.5627 16.9509 27.6337C17.1273 27.7046 17.3163 27.7412 17.5073 27.7412C17.6982 27.7412 17.8873 27.7046 18.0637 27.6337C18.2401 27.5627 18.4004 27.4586 18.5354 27.3275C18.6704 27.1963 18.7775 27.0406 18.8506 26.8692C18.9237 26.6979 18.9613 26.5142 18.9613 26.3287C18.9613 26.1432 18.9237 25.9596 18.8506 25.7882C18.7775 25.6168 18.6704 25.4611 18.5354 25.33L11.4187 18.4166H27.7083C28.5104 18.4166 29.1667 17.7791 29.1667 17C29.1667 16.2208 28.5104 15.5833 27.7083 15.5833Z" fill="white"/>
</svg>
