<svg width="7" height="11" viewBox="0 0 7 11" fill="none" xmlns="http://www.w3.org/2000/svg">
<path d="M0 7.33333H1.4C1.4 7.99333 2.359 8.55556 3.5 8.55556C4.641 8.55556 5.6 7.99333 5.6 7.33333C5.6 6.66111 4.872 6.41667 3.332 6.09278C1.848 5.76889 0 5.36556 0 3.66667C0 2.57278 1.029 1.64389 2.45 1.33222V0H4.55V1.33222C5.971 1.64389 7 2.57278 7 3.66667H5.6C5.6 3.00667 4.641 2.44444 3.5 2.44444C2.359 2.44444 1.4 3.00667 1.4 3.66667C1.4 4.33889 2.128 4.58333 3.668 4.90722C5.152 5.23111 7 5.63444 7 7.33333C7 8.42722 5.971 9.35611 4.55 9.66778V11H2.45V9.66778C1.029 9.35611 0 8.42722 0 7.33333Z" fill="white"/>
</svg>
